<?xml version="1.0" encoding="UTF-8"?><svg id="Layer_1" xmlns="http://www.w3.org/2000/svg" viewBox="0 0 32 32"><defs><style>.cls-1{fill:#2f5fa7;}.cls-2{fill:#fff;}</style></defs><path class="cls-1" d="M0,18.16v6.9s0,.29,0,.29c.15,3.69,3.2,6.64,6.93,6.64h18.43c3.69-.16,6.64-3.2,6.64-6.93V6.64C31.84,2.95,28.8,0,25.07,0H6.64C2.95.16,0,3.2,0,6.93v8S0,18.16,0,18.16Z"/><path class="cls-2" d="M9.67,24.91V7.13h5.83c1.85,0,3.45.37,4.81,1.12,1.36.75,2.41,1.79,3.16,3.12.75,1.33,1.12,2.88,1.12,4.64s-.37,3.3-1.12,4.64c-.75,1.35-1.8,2.39-3.16,3.14-1.36.75-2.96,1.12-4.81,1.12h-5.83ZM12.49,22.4h3.06c1.26,0,2.35-.26,3.27-.79.92-.52,1.64-1.27,2.15-2.22.51-.95.76-2.08.76-3.39s-.25-2.43-.76-3.38c-.51-.95-1.23-1.68-2.15-2.21-.92-.52-2.01-.79-3.27-.79h-3.06v12.77Z"/></svg>